{
    "asset" : {
        "generator" : "Khronos glTF Blender I/O v1.8.19",
        "version" : "2.0"
    },
    "scene" : 0,
    "scenes" : [
        {
            "name" : "Scene",
            "nodes" : [
                0
            ]
        }
    ],
    "nodes" : [
        {
            "mesh" : 0,
            "name" : "Text"
        }
    ],
    "materials" : [
        {
            "doubleSided" : true,
            "name" : "Material.002",
            "pbrMetallicRoughness" : {
                "metallicFactor" : 0,
                "roughnessFactor" : 0.5
            }
        }
    ],
    "meshes" : [
        {
            "name" : "Text",
            "primitives" : [
                {
                    "attributes" : {
                        "POSITION" : 0,
                        "NORMAL" : 1,
                        "TEXCOORD_0" : 2
                    },
                    "indices" : 3,
                    "material" : 0
                }
            ]
        }
    ],
    "accessors" : [
        {
            "bufferView" : 0,
            "componentType" : 5126,
            "count" : 20243,
            "max" : [
                0.33636367321014404,
                0.4234545826911926,
                1.850978748052512e-08
            ],
            "min" : [
                -0.3306363821029663,
                -0.26254546642303467,
                -0.10767754912376404
            ],
            "type" : "VEC3"
        },
        {
            "bufferView" : 1,
            "componentType" : 5126,
            "count" : 20243,
            "type" : "VEC3"
        },
        {
            "bufferView" : 2,
            "componentType" : 5126,
            "count" : 20243,
            "type" : "VEC2"
        },
        {
            "bufferView" : 3,
            "componentType" : 5123,
            "count" : 33792,
            "type" : "SCALAR"
        }
    ],
    "bufferViews" : [
        {
            "buffer" : 0,
            "byteLength" : 242916,
            "byteOffset" : 0
        },
        {
            "buffer" : 0,
            "byteLength" : 242916,
            "byteOffset" : 242916
        },
        {
            "buffer" : 0,
            "byteLength" : 161944,
            "byteOffset" : 485832
        },
        {
            "buffer" : 0,
            "byteLength" : 67584,
            "byteOffset" : 647776
        }
    ],
    "buffers" : [
        {
            "byteLength" : 715360,
            "uri" : "data:application/octet-stream;base64,"
        }
    ]
}
