{
    "asset" : {
        "generator" : "Khronos glTF Blender I/O v1.8.19",
        "version" : "2.0"
    },
    "scene" : 0,
    "scenes" : [
        {
            "name" : "Scene",
            "nodes" : [
                0
            ]
        }
    ],
    "nodes" : [
        {
            "mesh" : 0,
            "name" : "Cube"
        }
    ],
    "meshes" : [
        {
            "name" : "Cube.003",
            "primitives" : [
                {
                    "attributes" : {
                        "POSITION" : 0,
                        "NORMAL" : 1,
                        "TEXCOORD_0" : 2
                    },
                    "indices" : 3
                }
            ]
        }
    ],
    "accessors" : [
        {
            "bufferView" : 0,
            "componentType" : 5126,
            "count" : 8694,
            "max" : [
                0.3381291627883911,
                0.3381291627883911,
                0.3381291627883911
            ],
            "min" : [
                -0.3381291627883911,
                -0.3381291627883911,
                -0.3381291627883911
            ],
            "type" : "VEC3"
        },
        {
            "bufferView" : 1,
            "componentType" : 5126,
            "count" : 8694,
            "type" : "VEC3"
        },
        {
            "bufferView" : 2,
            "componentType" : 5126,
            "count" : 8694,
            "type" : "VEC2"
        },
        {
            "bufferView" : 3,
            "componentType" : 5123,
            "count" : 36864,
            "type" : "SCALAR"
        }
    ],
    "bufferViews" : [
        {
            "buffer" : 0,
            "byteLength" : 104328,
            "byteOffset" : 0
        },
        {
            "buffer" : 0,
            "byteLength" : 104328,
            "byteOffset" : 104328
        },
        {
            "buffer" : 0,
            "byteLength" : 69552,
            "byteOffset" : 208656
        },
        {
            "buffer" : 0,
            "byteLength" : 73728,
            "byteOffset" : 278208
        }
    ],
    "buffers" : [
        {
            "byteLength" : 351936,
            "uri" : "data:application/octet-stream;base64,"
        }
    ]
}
