{
    "asset" : {
        "generator" : "Khronos glTF Blender I/O v1.8.19",
        "version" : "2.0"
    },
    "scene" : 0,
    "scenes" : [
        {
            "name" : "Scene",
            "nodes" : [
                0
            ]
        }
    ],
    "nodes" : [
        {
            "mesh" : 0,
            "name" : "Circle"
        }
    ],
    "meshes" : [
        {
            "name" : "Circle.001",
            "primitives" : [
                {
                    "attributes" : {
                        "POSITION" : 0,
                        "NORMAL" : 1,
                        "TEXCOORD_0" : 2
                    },
                    "indices" : 3
                }
            ]
        }
    ],
    "accessors" : [
        {
            "bufferView" : 0,
            "componentType" : 5126,
            "count" : 7784,
            "max" : [
                0.20227181911468506,
                0.3441771864891052,
                8.841581689011946e-09
            ],
            "min" : [
                -0.20227181911468506,
                -0.34134283661842346,
                -0.09153096377849579
            ],
            "type" : "VEC3"
        },
        {
            "bufferView" : 1,
            "componentType" : 5126,
            "count" : 7784,
            "type" : "VEC3"
        },
        {
            "bufferView" : 2,
            "componentType" : 5126,
            "count" : 7784,
            "type" : "VEC2"
        },
        {
            "bufferView" : 3,
            "componentType" : 5123,
            "count" : 12288,
            "type" : "SCALAR"
        }
    ],
    "bufferViews" : [
        {
            "buffer" : 0,
            "byteLength" : 93408,
            "byteOffset" : 0
        },
        {
            "buffer" : 0,
            "byteLength" : 93408,
            "byteOffset" : 93408
        },
        {
            "buffer" : 0,
            "byteLength" : 62272,
            "byteOffset" : 186816
        },
        {
            "buffer" : 0,
            "byteLength" : 24576,
            "byteOffset" : 249088
        }
    ],
    "buffers" : [
        {
            "byteLength" : 273664,
            "uri" : "data:application/octet-stream;base64,"
        }
    ]
}
