{
    "asset" : {
        "generator" : "Khronos glTF Blender I/O v1.8.19",
        "version" : "2.0"
    },
    "scene" : 0,
    "scenes" : [
        {
            "name" : "Scene",
            "nodes" : [
                0
            ]
        }
    ],
    "nodes" : [
        {
            "mesh" : 0,
            "name" : "Text"
        }
    ],
    "meshes" : [
        {
            "name" : "Text.001",
            "primitives" : [
                {
                    "attributes" : {
                        "POSITION" : 0,
                        "NORMAL" : 1,
                        "TEXCOORD_0" : 2
                    },
                    "indices" : 3
                }
            ]
        }
    ],
    "accessors" : [
        {
            "bufferView" : 0,
            "componentType" : 5126,
            "count" : 16640,
            "max" : [
                0.10500000417232513,
                0.3500000238418579,
                1.529898696617238e-08
            ],
            "min" : [
                -0.10500001162290573,
                -0.3500000238418579,
                -0.06911823153495789
            ],
            "type" : "VEC3"
        },
        {
            "bufferView" : 1,
            "componentType" : 5126,
            "count" : 16640,
            "type" : "VEC3"
        },
        {
            "bufferView" : 2,
            "componentType" : 5126,
            "count" : 16640,
            "type" : "VEC2"
        },
        {
            "bufferView" : 3,
            "componentType" : 5123,
            "count" : 22848,
            "type" : "SCALAR"
        }
    ],
    "bufferViews" : [
        {
            "buffer" : 0,
            "byteLength" : 199680,
            "byteOffset" : 0
        },
        {
            "buffer" : 0,
            "byteLength" : 199680,
            "byteOffset" : 199680
        },
        {
            "buffer" : 0,
            "byteLength" : 133120,
            "byteOffset" : 399360
        },
        {
            "buffer" : 0,
            "byteLength" : 45696,
            "byteOffset" : 532480
        }
    ],
    "buffers" : [
        {
            "byteLength" : 578176,
            "uri" : "data:application/octet-stream;base64,"
        }
    ]
}
